<svg width="24" height="24" fill="none" xmlns="http://www.w3.org/2000/svg"><path fill-rule="evenodd" clip-rule="evenodd" d="M9.355 5.132l-1.09.561L4 17.928l.85.529 3.126-.289.882-2.694 2.999-.24.593 2.068.866.273 2.277-.273-3.416-11.609-2.822-.56zm.956 3.848l-1.192 4.41 2.476-.132-1.284-4.278z" fill="#fff"/><path d="M17.453 3.24c-.514 1.476-1.7 2.23-2.23 2.422v1.94l.738.112 1.09-.497c-.005 1.694-.012 5.115 0 5.243.014.129 1.406.171 2.101.177l.45-.337V3.465L19.151 3c-.802.096-.862.1-1.7.24z" fill="#fff"/></svg>