<svg width="36" height="36" fill="none" xmlns="http://www.w3.org/2000/svg"><path fill-rule="evenodd" clip-rule="evenodd" d="M2.163 2.38a1.038 1.038 0 000 2.077h4.154a1.73 1.73 0 011.731 1.73v18.044c0 .573.465 1.038 1.039 1.038h17.186a3.808 3.808 0 003.196-1.738l.46-.71c1.043-1.612-.114-3.74-2.035-3.74H13.197a1.038 1.038 0 100 2.078h14.697c.275 0 .44.304.29.534l-.458.71a1.73 1.73 0 01-1.453.79H10.125V6.186A3.808 3.808 0 006.317 2.38H2.163zm8.914 24.966a3.115 3.115 0 100 6.23 3.115 3.115 0 000-6.23zm15.23 0a3.115 3.115 0 100 6.23 3.115 3.115 0 000-6.23zM10.04 30.462a1.038 1.038 0 112.076 0 1.038 1.038 0 01-2.076 0zm15.23 0a1.039 1.039 0 112.077 0 1.039 1.039 0 01-2.077 0z" fill="#894083"/><path fill-rule="evenodd" clip-rule="evenodd" d="M20.5 0a7.5 7.5 0 000 15h6a7.5 7.5 0 000-15h-6z" fill="#894083"/></svg>