<svg width="32" height="32" fill="none" xmlns="http://www.w3.org/2000/svg"><path fill-rule="evenodd" clip-rule="evenodd" d="M24.481 26.047a.8.8 0 101.131-1.131l-8.48-8.481 8.48-8.48a.8.8 0 00-1.13-1.132L16 15.304l-8.48-8.48a.8.8 0 00-1.131 1.13l8.48 8.481-8.48 8.48a.8.8 0 001.13 1.132L16 17.566l8.481 8.48z" fill="#894083"/><path fill-rule="evenodd" clip-rule="evenodd" d="M7.302 7.04a.492.492 0 10-.696.697l8.699 8.698-8.699 8.699a.492.492 0 10.696.695L16 17.131l8.699 8.698a.492.492 0 10.696-.695l-8.699-8.699 8.698-8.698a.492.492 0 10-.695-.696L16 15.739 7.302 7.041zm-1.13-.434a1.107 1.107 0 011.565 0L16 14.869l8.264-8.263a1.107 1.107 0 111.566 1.566l-8.264 8.263 8.264 8.263a1.107 1.107 0 01-1.566 1.566L16 18.001l-8.263 8.263a1.107 1.107 0 01-1.566-1.566l8.264-8.263L6.17 8.172a1.107 1.107 0 010-1.566z" fill="#894083"/></svg>