<svg width="32" height="32" fill="none" xmlns="http://www.w3.org/2000/svg"><path fill-rule="evenodd" clip-rule="evenodd" d="M10 3.385c-4.276 0-7.64 3.364-7.64 7.64 0 2.615 1.118 5.002 3.102 7.482 1.98 2.475 4.846 5.072 8.385 8.107l.013.013.283.257a2.77 2.77 0 003.72.007l.278-.25.069-.064c3.405-3.094 6.256-5.685 8.252-8.132 2.004-2.456 3.18-4.805 3.18-7.42 0-4.276-3.365-7.64-7.642-7.64a8.216 8.216 0 00-4.29 1.233A8.335 8.335 0 0016 6.016a8.335 8.335 0 00-1.71-1.398A8.216 8.216 0 0010 3.385zm-5.794 7.64c0-3.256 2.537-5.794 5.794-5.794a6.37 6.37 0 013.322.959 6.365 6.365 0 011.507 1.286L16 8.852l1.172-1.376a6.365 6.365 0 011.507-1.286A6.37 6.37 0 0122 5.23c3.257 0 5.795 2.539 5.795 5.796 0 2.01-.887 3.953-2.763 6.252-1.893 2.32-4.63 4.813-8.08 7.948l-.05.045-.277.25a.923.923 0 01-1.24-.002l-.283-.258-.03-.028-.02-.017c-3.55-3.045-6.29-5.54-8.148-7.862-1.842-2.302-2.698-4.29-2.698-6.328z" fill="#8DC63F"/><path d="M2.36 11.026c0-4.277 3.364-7.641 7.64-7.641 1.532 0 3.022.452 4.29 1.233A8.335 8.335 0 0116 6.016a8.335 8.335 0 011.71-1.398A8.216 8.216 0 0122 3.385c4.277 0 7.641 3.364 7.641 7.64 0 2.615-1.175 4.964-3.179 7.42-1.996 2.447-4.847 5.038-8.252 8.132l-.07.063-.277.25a2.77 2.77 0 01-3.72-.006l-.283-.257-.013-.012c-3.54-3.036-6.405-5.633-8.385-8.108-1.984-2.48-3.103-4.867-3.103-7.481z" fill="#894083"/></svg>