<svg width="24" height="24" fill="none" xmlns="http://www.w3.org/2000/svg"><path d="M13.367 14.128l-.01.009-.012.008-.815.675a2.356 2.356 0 01-.475-.374c-.369-.357-.792-.887-1.179-1.472s-.723-1.2-.928-1.721a3.107 3.107 0 01-.191-.654.91.91 0 01-.012-.182l.842-.701c.355-.262.493-.687.455-1.072-.003-.164-.008-.32-.012-.469h0c-.017-.662-.03-1.197.038-1.922.053-.555-.255-1.204-.92-1.328l-2.172-.407c-.654-.122-1.216.36-1.313.971-1.04 6.557 3.008 12.847 9.134 13.993.655.122 1.217-.36 1.314-.971l.374-2.357c.093-.59-.258-1.21-.872-1.35a59.32 59.32 0 01-2.08-.771 1.1 1.1 0 00-1.165.095zm-.765.723h.002-.002z" fill="#fff" stroke="#fff"/></svg>