<svg width="600" height="600" fill="none" xmlns="http://www.w3.org/2000/svg"><path fill="#fff" fill-opacity=".22" d="M0 0h600v600H0z"/><g clip-path="url(#clip0)" fill-opacity=".1"><path d="M567.998 251.359a13.627 13.627 0 01-13.628-13.627c0-106.689-83.522-193.421-185.816-193.421a13.626 13.626 0 110-27.21c117.46 0 213.027 99.039 213.027 220.719a13.624 13.624 0 01-4.007 9.563 13.62 13.62 0 01-9.576 3.976z" fill="#8B4184"/><path d="M482.277 251.359a13.591 13.591 0 01-9.62-3.994 13.585 13.585 0 01-3.963-9.633 99.39 99.39 0 00-100.14-98.381 13.58 13.58 0 01-9.604-3.979 13.58 13.58 0 010-19.209 13.58 13.58 0 019.604-3.979 126.56 126.56 0 01127.482 125.548 13.578 13.578 0 01-8.497 12.64 13.586 13.586 0 01-5.262.987zm-82.819-2.33a13.187 13.187 0 01-8.792-13.671 19.124 19.124 0 00-20.089-19.254 12.226 12.226 0 01-11.65-9.188 13.181 13.181 0 01-.371-6.238 13.174 13.174 0 017.428-9.607 13.194 13.194 0 016.131-1.211c25.98 2.066 45.542 23.386 43.608 47.52a12.71 12.71 0 01-5.296 9.786 12.7 12.7 0 01-10.969 1.863z" fill="#8B4184"/><path d="M300.022 600A300.244 300.244 0 00600 299.978a9.53 9.53 0 00-2.856-6.719 9.539 9.539 0 00-6.771-2.732H318.265V9.803a9.67 9.67 0 00-9.231-9.715h-9.012a300.022 300.022 0 100 600V600zm261.162-262.964a261.25 261.25 0 01-45.366 114.294 9.672 9.672 0 01-13.188 2.462 183.496 183.496 0 01-82.423-116.361 9.664 9.664 0 011.97-8.088 9.676 9.676 0 017.525-3.561h121.723a9.677 9.677 0 017.525 3.333 9.666 9.666 0 012.234 7.921zm-233.38-11.078h45.586a9.712 9.712 0 019.539 8.264 220.362 220.362 0 0093.326 145.857 9.634 9.634 0 014.21 7.304 9.634 9.634 0 01-3.155 7.818 262.48 262.48 0 01-148.407 67.082 9.624 9.624 0 01-10.638-9.759V335.585a9.625 9.625 0 019.539-9.627zm-279.36 0h124.052a9.64 9.64 0 017.545 3.544 9.621 9.621 0 011.95 8.105 183.885 183.885 0 01-84.138 117.415 9.586 9.586 0 01-12.88-2.505 261.694 261.694 0 01-46.069-115.481 9.673 9.673 0 019.54-11.078zm222.741 236.325a263.053 263.053 0 01-147.396-65.939 9.628 9.628 0 011.099-15.166 220.103 220.103 0 0094.513-146.692 9.765 9.765 0 013.253-5.882 9.764 9.764 0 016.286-2.382h43.344a9.674 9.674 0 019.671 9.627v216.939a9.676 9.676 0 01-6.773 9.113 9.66 9.66 0 01-3.997.382zm10.77-514.807V280.11a9.674 9.674 0 01-9.671 9.627h-41.102a9.629 9.629 0 01-9.627-8.792 219.402 219.402 0 00-94.82-163.529 9.615 9.615 0 01-4.22-7.367 9.636 9.636 0 013.252-7.843 262.662 262.662 0 01145.418-64.312 9.67 9.67 0 0110.77 9.583zm-182.387 95.48a183.223 183.223 0 0185.457 136.273 9.506 9.506 0 01-2.441 7.428 9.499 9.499 0 01-7.187 3.079H46.729a9.669 9.669 0 01-7.111-3.169 9.67 9.67 0 01-2.472-7.382A261.78 261.78 0 0186.6 145.329a9.673 9.673 0 0112.968-2.373z" fill="#F5851F"/></g><defs><clipPath id="clip0"><path fill="#fff" d="M0 0h600v600H0z"/></clipPath></defs></svg>